<svg fill="none" height="20" viewBox="0 0 20 20" width="20" xmlns="http://www.w3.org/2000/svg"><circle cx="10" cy="10" fill="#214ff1" r="10"/><g stroke="#fff"><path d="m9.80396 9.5c1.51874 0 2.75004-1.23122 2.75004-2.75s-1.2313-2.75-2.75004-2.75c-1.51879 0-2.75 1.23122-2.75 2.75s1.23121 2.75 2.75 2.75z"/><path d="m12.5539 10.6h.1936c.4021.0001.7903.147 1.0917.4132s.4953.6332.5451 1.0322l.2151 1.7182c.0193.1548.0055.3119-.0405.461-.046.149-.1232.2866-.2265.4035-.1032.1169-.2302.2105-.3724.2747-.1422.0641-.2964.0972-.4524.0972h-7.40736c-.15599 0-.3102-.0331-.45241-.0972-.1422-.0642-.26913-.1578-.37238-.2747s-.18045-.2545-.22648-.4035c-.04602-.1491-.05982-.3062-.04048-.461l.2145-1.7182c.04988-.3992.24388-.7664.54551-1.0326.30163-.2661.69011-.413 1.09239-.4128h.19305" stroke-linecap="round" stroke-linejoin="round"/></g></svg>